<svg xmlns="http://www.w3.org/2000/svg" xmlns:xlink="http://www.w3.org/1999/xlink" width="160" height="24" viewBox="0 0 160 24">
  <defs>
    <clipPath id="clip-path">
      <path id="path2400" d="M0-92.637V-76.3H160V-92.637" transform="translate(0 92.637)" fill="#1473e6"/>
    </clipPath>
  </defs>
  <g id="Logo_Autosar" data-name="Logo Autosar" transform="translate(0 0.282)">
    <rect id="Background" width="160" height="24" transform="translate(0 -0.282)" fill="none"/>
    <g id="g2396" transform="translate(0 3.832)" clip-path="url(#clip-path)">
      <path id="path2402" d="M371.411-17.487l-2.677.374L368-19.592l3.408,2.105" transform="translate(-303.104 32.474)" fill="#0f348d"/>
      <path id="path2404" d="M419.933-64.947l-1.414.1a4.26,4.26,0,0,1,1.616,3.182q0,2.955-4.5,5.117a24.765,24.765,0,0,1-10.817,2.163,23.625,23.625,0,0,1-9.26-1.526l-.871.853a29.52,29.52,0,0,0,9.982,1.562,27.788,27.788,0,0,0,12.137-2.427q5.048-2.426,5.049-5.741a4.5,4.5,0,0,0-1.923-3.286" transform="translate(-325.082 69.83)" fill="#e63535"/>
      <path id="path2406" d="M356.32-80.618l2.1-.158a4.692,4.692,0,0,1-2.132-3.692q0-2.886,4.464-5.014a26.067,26.067,0,0,1,10.716-2.267,27.925,27.925,0,0,1,9.751,1.774l.877-.467a29.141,29.141,0,0,0-10.785-2.2,29.245,29.245,0,0,0-12.022,2.543q-5.009,2.389-5.009,5.626a5.048,5.048,0,0,0,2.036,3.85" transform="translate(-291.804 92.637)" fill="#e63535"/>
      <path id="Differenzmenge_1" data-name="Differenzmenge 1" d="M6.312,10.4a13.186,13.186,0,0,1-2.559-.243,6.9,6.9,0,0,1-2.518-.942A2.694,2.694,0,0,1,.075,7.659,2.611,2.611,0,0,1,.34,5.774,6.867,6.867,0,0,1,2.079,3.763,17.06,17.06,0,0,1,8.482.582,20.346,20.346,0,0,1,13.109,0a13.967,13.967,0,0,1,2.623.239,6.94,6.94,0,0,1,2.511.915,2.6,2.6,0,0,1,1.15,1.52A2.687,2.687,0,0,1,19.132,4.6a6.9,6.9,0,0,1-1.748,2.043A16.239,16.239,0,0,1,10.9,9.774,18.483,18.483,0,0,1,6.312,10.4Zm6.14-7.18a13.412,13.412,0,0,0-3.3.476,12.723,12.723,0,0,0-3.3,1.291C4.989,5.5,4.61,6,4.729,6.461s.732.723,1.822.78c.181.009.357.013.524.013A11.452,11.452,0,0,0,9.93,6.878a10.35,10.35,0,0,0,3.252-1.209c.876-.533,1.274-1.1,1.185-1.7-.091-.468-.654-.719-1.675-.748C12.614,3.223,12.532,3.222,12.452,3.222Z" transform="translate(69.892 3.002)" fill="#e63535"/>
      <path id="path2410" d="M563.736-73.112a3.331,3.331,0,0,1-2.072,2.976,12.475,12.475,0,0,1-5.807,1.109h-8.405v-3.206h6.479l1.751,0q1.575,0,1.576-.876,0-.991-2.51-1.926-4.321-1.4-4.729-1.635-2.452-.932-2.567-2.8c-.077-.972.739-1.926,2.451-1.926h14.009v2.335h-5.736c-.923,0-2.081-.2-2.081.654,0,.743,1.1,1.1,1.963,1.4,1.678.593,2.9,1.022,3.875,1.47a2.51,2.51,0,0,1,1.8,2.428" transform="translate(-450.902 83.382)" fill="#0f348d"/>
      <path id="path2412" d="M656.69-81.725l9.631,12.433H640.464l9.573-12.433Zm-3.385,3.619-4.028,5.72h8.114l-4.086-5.72" transform="translate(-527.515 83.649)" fill="#0f348d"/>
      <path id="path2414" d="M796.688-69.027V-81.4h11.674a11.13,11.13,0,0,1,5.72,1.284,3.14,3.14,0,0,1,1.81,2.626q0,2.045-2.8,2.569,3.093,1.517,3.094,4.086v1.808h-6.421v-1.867a2.468,2.468,0,0,0-1.4-2.276,4.545,4.545,0,0,0-2.394-.759H802v4.9Zm5.311-9.4v1.576h6.363a1.245,1.245,0,0,0,1.284-.817q-.234-.759-1.284-.759H802" transform="translate(-656.188 83.382)" fill="#0f348d"/>
      <path id="path2418" d="M512.954-79.512l1.969-1.326,1.221,2.083-3.189-.756" transform="translate(-422.492 82.919)" fill="#0f348d"/>
      <path id="path2420" d="M15.906-81.378l9.441,12.186H0L9.383-81.378ZM12.587-77.83,8.639-72.224h7.953l-4-5.606" transform="translate(0 83.363)" fill="#0f348d"/>
      <path id="path2422" d="M155.361-73.825q.057,1.031.429,1.259a8.611,8.611,0,0,0,2.776.229h3.146v-9.04h6.408v12.186h-9.554a31.221,31.221,0,0,1-5.207-.285,5.186,5.186,0,0,1-3.2-1.2,3.81,3.81,0,0,1-1.145-3.146v-7.552h6.351v7.552" transform="translate(-122.731 83.363)" fill="#0f348d"/>
      <path id="path2424" d="M282.463-78.747h-5.206v9.555h-5.836v-9.555H266.5v-2.631h15.962v2.631" transform="translate(-219.502 83.363)" fill="#0f348d"/>
    </g>
  </g>
</svg>
